<svg xmlns="http://www.w3.org/2000/svg" xmlns:xlink="http://www.w3.org/1999/xlink" width="192" zoomAndPan="magnify" viewBox="0 0 144 143.999998" height="192" preserveAspectRatio="xMidYMid meet" version="1.0"><defs><clipPath id="b4a80b6703"><path d="M 2.097656 2 L 141.597656 2 L 141.597656 142 L 2.097656 142 Z M 2.097656 2 " clip-rule="nonzero"/></clipPath><clipPath id="dedc73b785"><path d="M 68 49.152344 L 76 49.152344 L 76 56 L 68 56 Z M 68 49.152344 " clip-rule="nonzero"/></clipPath><clipPath id="556f1706cf"><path d="M 68 88 L 76 88 L 76 94.902344 L 68 94.902344 Z M 68 88 " clip-rule="nonzero"/></clipPath></defs><g clip-path="url(#b4a80b6703)"><path fill="#6ff2ff" d="M 66.421875 103.582031 L 66.421875 84.230469 L 56.660156 74.246094 L 34.3125 87.082031 L 34.3125 87.167969 C 34.3125 87.25 34.34375 87.332031 34.34375 87.417969 C 34.34375 88.367188 33.949219 89.234375 33.335938 89.851562 C 32.71875 90.464844 31.824219 90.859375 30.902344 90.859375 C 29.980469 90.859375 29.085938 90.464844 28.496094 89.851562 C 27.882812 89.234375 27.492188 88.367188 27.492188 87.417969 C 27.492188 86.46875 27.882812 85.628906 28.496094 85.011719 C 29.113281 84.398438 29.980469 84.003906 30.902344 84.003906 C 31.292969 84.003906 31.683594 84.0625 32.050781 84.171875 C 32.355469 84.285156 32.664062 84.453125 32.917969 84.648438 L 42.675781 79.027344 L 32.019531 74.191406 C 31.742188 74.441406 31.40625 74.636719 31.042969 74.804688 C 30.652344 74.972656 30.203125 75.054688 29.753906 75.054688 C 28.804688 75.054688 27.9375 74.664062 27.324219 74.050781 C 26.707031 73.433594 26.316406 72.566406 26.316406 71.644531 C 26.316406 70.695312 26.707031 69.828125 27.324219 69.210938 C 27.9375 68.597656 28.804688 68.203125 29.753906 68.203125 C 30.707031 68.203125 31.546875 68.597656 32.160156 69.210938 C 32.777344 69.828125 33.167969 70.695312 33.167969 71.617188 L 45.726562 77.292969 L 54.617188 72.175781 L 43.710938 60.988281 L 32.46875 59.117188 C 32.160156 59.5625 31.742188 59.925781 31.292969 60.179688 C 30.789062 60.457031 30.230469 60.625 29.617188 60.625 C 28.664062 60.625 27.824219 60.234375 27.210938 59.617188 C 26.59375 59.003906 26.203125 58.136719 26.203125 57.1875 C 26.203125 56.234375 26.59375 55.367188 27.210938 54.78125 C 27.824219 54.164062 28.691406 53.773438 29.617188 53.773438 C 30.453125 53.773438 31.183594 54.054688 31.796875 54.527344 C 32.355469 54.976562 32.75 55.59375 32.972656 56.320312 L 44.660156 58.277344 L 44.71875 58.304688 L 45.359375 58.640625 L 45.417969 58.695312 L 66.421875 80.230469 L 66.421875 60.988281 L 58.617188 50.640625 L 36.832031 46.949219 C 36.550781 47.398438 36.132812 47.761719 35.65625 48.011719 C 35.152344 48.292969 34.59375 48.460938 33.980469 48.460938 C 33.027344 48.460938 32.160156 48.070312 31.546875 47.453125 C 30.929688 46.839844 30.566406 45.972656 30.566406 45.019531 C 30.566406 44.070312 30.957031 43.203125 31.546875 42.617188 C 32.160156 42 33.054688 41.609375 33.980469 41.609375 C 34.816406 41.609375 35.542969 41.886719 36.132812 42.363281 C 36.691406 42.8125 37.109375 43.425781 37.308594 44.152344 L 56.15625 47.339844 L 46.507812 34.53125 C 46.425781 34.5625 46.3125 34.589844 46.226562 34.589844 C 46.058594 34.617188 45.921875 34.644531 45.78125 34.644531 C 44.828125 34.644531 43.960938 34.253906 43.347656 33.636719 C 42.730469 33.023438 42.339844 32.15625 42.339844 31.203125 C 42.339844 30.253906 42.730469 29.386719 43.347656 28.800781 C 43.960938 28.183594 44.828125 27.792969 45.78125 27.792969 C 46.730469 27.792969 47.570312 28.183594 48.1875 28.800781 C 48.800781 29.414062 49.191406 30.28125 49.191406 31.203125 C 49.191406 31.539062 49.136719 31.820312 49.050781 32.15625 C 48.996094 32.40625 48.886719 32.660156 48.773438 32.882812 L 66.421875 56.261719 L 66.421875 38 L 56.773438 25.136719 C 56.660156 25.164062 56.574219 25.191406 56.492188 25.191406 C 56.324219 25.21875 56.183594 25.25 56.015625 25.25 C 55.066406 25.25 54.199219 24.855469 53.609375 24.242188 C 52.996094 23.625 52.605469 22.757812 52.605469 21.808594 C 52.605469 20.859375 52.996094 19.992188 53.609375 19.402344 C 54.226562 18.789062 55.09375 18.394531 56.015625 18.394531 C 56.96875 18.394531 57.835938 18.789062 58.449219 19.402344 C 59.066406 20.019531 59.457031 20.886719 59.457031 21.808594 C 59.457031 22.117188 59.398438 22.421875 59.316406 22.757812 C 59.261719 23.011719 59.148438 23.261719 59.035156 23.484375 L 66.449219 33.332031 L 66.449219 16.578125 C 65.832031 16.300781 65.328125 15.933594 64.992188 15.402344 C 64.628906 14.902344 64.433594 14.230469 64.433594 13.445312 C 64.433594 12.578125 64.824219 11.710938 65.496094 11.042969 C 66.113281 10.425781 66.953125 10.007812 67.875 10.007812 C 68.796875 10.007812 69.636719 10.398438 70.25 11.042969 C 70.921875 11.683594 71.3125 12.550781 71.3125 13.445312 C 71.3125 14.230469 71.117188 14.871094 70.753906 15.402344 C 70.390625 15.933594 69.886719 16.328125 69.300781 16.578125 L 69.300781 103.441406 C 69.691406 103.414062 70.140625 103.414062 70.558594 103.386719 C 71.089844 103.386719 71.59375 103.386719 72.070312 103.386719 C 72.515625 103.386719 73.019531 103.386719 73.578125 103.386719 C 73.972656 103.414062 74.417969 103.414062 74.835938 103.441406 L 74.835938 16.578125 C 74.222656 16.300781 73.71875 15.933594 73.355469 15.402344 C 73.019531 14.902344 72.796875 14.230469 72.796875 13.445312 C 72.796875 12.578125 73.214844 11.710938 73.859375 11.042969 C 74.472656 10.425781 75.3125 10.007812 76.234375 10.007812 C 77.160156 10.007812 78 10.398438 78.613281 11.042969 C 79.257812 11.683594 79.675781 12.550781 79.675781 13.445312 C 79.675781 14.230469 79.453125 14.871094 79.117188 15.402344 C 78.753906 15.933594 78.25 16.328125 77.632812 16.578125 L 77.632812 33.273438 L 85.046875 23.429688 C 84.933594 23.207031 84.820312 22.953125 84.765625 22.703125 C 84.710938 22.394531 84.652344 22.089844 84.652344 21.753906 C 84.652344 20.800781 85.046875 19.933594 85.660156 19.347656 C 86.277344 18.730469 87.144531 18.339844 88.066406 18.339844 C 89.015625 18.339844 89.882812 18.730469 90.5 19.347656 C 91.113281 19.960938 91.507812 20.828125 91.507812 21.753906 C 91.507812 22.703125 91.113281 23.570312 90.5 24.183594 C 89.882812 24.800781 88.988281 25.191406 88.066406 25.191406 C 87.898438 25.191406 87.785156 25.164062 87.617188 25.136719 C 87.507812 25.136719 87.421875 25.109375 87.339844 25.082031 L 77.664062 37.945312 L 77.664062 56.261719 L 95.308594 32.800781 C 95.167969 32.574219 95.085938 32.324219 95.03125 32.070312 C 94.945312 31.765625 94.890625 31.457031 94.890625 31.121094 C 94.890625 30.171875 95.28125 29.304688 95.898438 28.714844 C 96.511719 28.101562 97.378906 27.710938 98.328125 27.710938 C 99.28125 27.710938 100.121094 28.101562 100.734375 28.714844 C 101.351562 29.332031 101.742188 30.199219 101.742188 31.121094 C 101.742188 32.070312 101.351562 32.9375 100.734375 33.554688 C 100.121094 34.167969 99.253906 34.5625 98.328125 34.5625 C 98.160156 34.5625 98.023438 34.53125 97.855469 34.503906 C 97.769531 34.503906 97.660156 34.476562 97.574219 34.449219 L 87.925781 47.257812 L 106.777344 44.070312 C 106.945312 43.34375 107.390625 42.726562 107.949219 42.28125 C 108.539062 41.777344 109.292969 41.523438 110.105469 41.523438 C 111.054688 41.523438 111.921875 41.917969 112.535156 42.53125 C 113.152344 43.148438 113.542969 44.015625 113.542969 44.9375 C 113.542969 45.886719 113.152344 46.753906 112.535156 47.371094 C 111.921875 47.984375 111.054688 48.375 110.105469 48.375 C 109.488281 48.375 108.929688 48.207031 108.425781 47.929688 C 107.949219 47.648438 107.558594 47.3125 107.25 46.867188 L 85.464844 50.558594 L 77.664062 60.90625 L 77.664062 80.144531 L 98.664062 58.613281 L 98.722656 58.554688 L 99.363281 58.222656 L 99.421875 58.191406 L 111.136719 56.234375 C 111.304688 55.507812 111.753906 54.894531 112.3125 54.445312 C 112.898438 53.941406 113.65625 53.691406 114.464844 53.691406 C 115.417969 53.691406 116.285156 54.082031 116.898438 54.695312 C 117.515625 55.3125 117.90625 56.179688 117.90625 57.101562 C 117.90625 58.054688 117.515625 58.917969 116.898438 59.535156 C 116.285156 60.152344 115.390625 60.542969 114.464844 60.542969 C 113.851562 60.542969 113.292969 60.375 112.789062 60.09375 C 112.3125 59.816406 111.921875 59.480469 111.613281 59.03125 L 100.34375 60.90625 L 89.464844 72.09375 L 98.359375 77.210938 L 110.914062 71.53125 C 110.914062 70.582031 111.304688 69.742188 111.921875 69.128906 C 112.535156 68.511719 113.402344 68.121094 114.355469 68.121094 C 115.304688 68.121094 116.144531 68.511719 116.757812 69.128906 C 117.375 69.742188 117.765625 70.609375 117.765625 71.5625 C 117.765625 72.511719 117.375 73.351562 116.757812 73.964844 C 116.144531 74.582031 115.277344 74.972656 114.355469 74.972656 C 113.878906 74.972656 113.460938 74.890625 113.066406 74.722656 C 112.703125 74.554688 112.367188 74.355469 112.089844 74.105469 L 101.40625 78.945312 L 111.167969 84.566406 C 111.445312 84.371094 111.726562 84.203125 112.0625 84.089844 C 112.425781 83.976562 112.789062 83.921875 113.179688 83.921875 C 114.132812 83.921875 114.996094 84.3125 115.613281 84.929688 C 116.226562 85.542969 116.621094 86.410156 116.621094 87.332031 C 116.621094 88.285156 116.226562 89.152344 115.613281 89.765625 C 114.996094 90.382812 114.132812 90.773438 113.179688 90.773438 C 112.230469 90.773438 111.363281 90.382812 110.773438 89.765625 C 110.160156 89.152344 109.769531 88.285156 109.769531 87.332031 C 109.769531 87.277344 109.769531 87.167969 109.769531 87.082031 L 109.769531 87 L 87.449219 74.160156 L 77.691406 84.144531 L 77.691406 103.5 C 81.128906 103.722656 84.542969 104.167969 87.84375 104.785156 C 91.28125 105.457031 94.667969 106.324219 97.9375 107.386719 C 101.964844 108.699219 105.851562 110.324219 109.601562 112.195312 C 113.320312 114.070312 116.871094 116.222656 120.226562 118.601562 C 126.183594 112.449219 130.996094 105.175781 134.292969 97.121094 C 137.484375 89.320312 139.246094 80.789062 139.246094 71.8125 C 139.246094 62.722656 137.425781 54.054688 134.15625 46.167969 C 130.742188 37.972656 125.792969 30.5625 119.613281 24.382812 C 113.433594 18.199219 106.046875 13.195312 97.828125 9.8125 C 89.941406 6.539062 81.269531 4.75 72.179688 4.75 C 63.09375 4.75 54.421875 6.566406 46.507812 9.8125 C 38.3125 13.222656 30.929688 18.199219 24.722656 24.382812 C 18.542969 30.5625 13.5625 37.945312 10.179688 46.167969 C 6.878906 54.054688 5.117188 62.722656 5.117188 71.8125 C 5.117188 80.789062 6.851562 89.320312 10.066406 97.121094 C 13.339844 105.175781 18.148438 112.449219 24.105469 118.601562 C 27.492188 116.195312 31.015625 114.070312 34.761719 112.195312 C 38.480469 110.324219 42.367188 108.699219 46.394531 107.386719 C 49.695312 106.324219 53.023438 105.457031 56.492188 104.785156 C 59.597656 104.253906 62.980469 103.804688 66.421875 103.582031 Z M 122.410156 120.363281 L 121.820312 120.976562 L 121.429688 121.371094 C 120.285156 122.515625 119.109375 123.632812 117.878906 124.667969 C 116.757812 125.648438 115.585938 126.625 114.382812 127.523438 L 114.410156 127.523438 L 113.542969 128.136719 C 112.089844 129.199219 110.578125 130.234375 109.070312 131.214844 C 107.671875 132.082031 106.214844 132.917969 104.761719 133.703125 L 104.816406 133.757812 L 102.945312 134.652344 C 99.308594 136.441406 95.53125 137.925781 91.589844 139.070312 C 87.730469 140.191406 83.730469 141 79.621094 141.449219 C 74.78125 141.953125 70 141.980469 65.1875 141.503906 C 60.9375 141.113281 56.800781 140.300781 52.828125 139.183594 C 48.746094 138.007812 44.828125 136.5 41.082031 134.652344 L 39.207031 133.757812 L 39.265625 133.703125 C 37.808594 132.917969 36.355469 132.082031 34.957031 131.214844 C 33.417969 130.261719 31.910156 129.226562 30.453125 128.136719 L 29.617188 127.523438 C 28.441406 126.597656 27.265625 125.648438 26.121094 124.667969 C 24.890625 123.605469 23.714844 122.488281 22.597656 121.371094 C 22.261719 121.035156 21.925781 120.726562 21.617188 120.390625 C 15.492188 114.015625 10.570312 106.492188 7.1875 98.15625 C 3.886719 90.046875 2.097656 81.210938 2.097656 71.925781 C 2.097656 62.472656 3.96875 53.4375 7.382812 45.1875 C 10.933594 36.660156 16.136719 28.941406 22.597656 22.507812 C 29.027344 16.074219 36.71875 10.875 45.277344 7.320312 C 53.5 3.882812 62.53125 2.007812 72.011719 2.007812 C 81.464844 2.007812 90.5 3.882812 98.722656 7.292969 C 107.277344 10.84375 114.96875 16.046875 121.429688 22.480469 C 127.863281 28.910156 133.0625 36.628906 136.617188 45.160156 C 140.027344 53.410156 141.902344 62.445312 141.902344 71.894531 C 141.902344 81.179688 140.082031 90.019531 136.8125 98.128906 C 133.457031 106.464844 128.535156 114.015625 122.410156 120.363281 Z M 25.980469 120.699219 C 26.929688 121.59375 27.910156 122.460938 28.917969 123.328125 C 29.980469 124.195312 31.015625 125.0625 32.105469 125.84375 C 34.957031 123.96875 37.921875 122.292969 41.027344 120.835938 C 44.128906 119.355469 47.347656 118.097656 50.675781 117.089844 C 54.085938 116.027344 57.609375 115.246094 61.21875 114.683594 C 64.742188 114.183594 68.351562 113.902344 72.011719 113.902344 C 75.648438 113.902344 79.285156 114.183594 82.78125 114.683594 C 86.386719 115.214844 89.882812 116.027344 93.324219 117.089844 C 96.652344 118.097656 99.894531 119.355469 103 120.835938 C 106.078125 122.292969 109.070312 123.96875 111.894531 125.84375 C 112.984375 125.03125 114.074219 124.195312 115.082031 123.328125 C 116.089844 122.488281 117.066406 121.59375 118.046875 120.699219 C 114.859375 118.460938 111.503906 116.476562 108.007812 114.714844 C 104.453125 112.953125 100.761719 111.414062 96.929688 110.183594 C 92.960938 108.894531 88.847656 107.890625 84.652344 107.21875 C 80.542969 106.574219 76.320312 106.238281 71.984375 106.238281 C 67.652344 106.238281 63.457031 106.574219 59.316406 107.21875 C 55.121094 107.890625 51.011719 108.867188 47.039062 110.183594 C 43.207031 111.441406 39.515625 112.953125 35.992188 114.714844 C 32.496094 116.476562 29.140625 118.488281 25.980469 120.699219 Z M 34.59375 127.605469 C 35.769531 128.417969 37 129.171875 38.230469 129.898438 C 39.515625 130.652344 40.859375 131.382812 42.199219 132.050781 C 44.382812 130.851562 46.648438 129.785156 48.996094 128.863281 C 51.347656 127.914062 53.75 127.128906 56.238281 126.488281 C 58.785156 125.816406 61.386719 125.3125 64.042969 124.976562 C 66.671875 124.640625 69.328125 124.472656 72.011719 124.472656 C 74.699219 124.472656 77.328125 124.640625 79.957031 124.976562 C 82.613281 125.3125 85.214844 125.816406 87.757812 126.488281 C 90.246094 127.128906 92.652344 127.914062 95 128.863281 C 97.351562 129.816406 99.617188 130.851562 101.796875 132.050781 C 103.140625 131.382812 104.480469 130.652344 105.769531 129.898438 C 107.027344 129.171875 108.230469 128.390625 109.40625 127.605469 C 106.832031 125.984375 104.148438 124.53125 101.351562 123.214844 C 98.496094 121.871094 95.53125 120.753906 92.484375 119.804688 C 89.210938 118.796875 85.855469 118.042969 82.390625 117.507812 C 79.003906 117.007812 75.535156 116.753906 72.011719 116.753906 C 68.488281 116.753906 64.992188 117.007812 61.609375 117.507812 C 58.140625 118.011719 54.757812 118.796875 51.515625 119.804688 C 48.464844 120.753906 45.5 121.871094 42.648438 123.214844 C 39.851562 124.5 37.167969 125.957031 34.59375 127.605469 Z M 45.445312 133.535156 C 49.109375 135.128906 52.96875 136.386719 56.910156 137.28125 C 60.964844 138.203125 65.105469 138.792969 69.414062 138.933594 C 69.550781 138.933594 69.691406 138.933594 69.832031 138.960938 C 69.972656 138.960938 70.113281 138.960938 70.28125 138.960938 C 70.558594 138.988281 70.8125 138.988281 71.117188 138.988281 C 71.539062 138.988281 71.984375 138.988281 72.433594 138.988281 L 73.300781 138.988281 L 74.140625 138.960938 C 74.304688 138.933594 74.417969 138.933594 74.585938 138.933594 C 78.863281 138.765625 83.03125 138.203125 87.058594 137.28125 C 91.03125 136.359375 94.863281 135.101562 98.527344 133.535156 C 96.761719 132.667969 94.972656 131.855469 93.128906 131.128906 C 91.140625 130.402344 89.101562 129.730469 87.03125 129.171875 C 84.625 128.554688 82.136719 128.054688 79.621094 127.746094 C 77.132812 127.4375 74.585938 127.242188 72.011719 127.242188 C 69.414062 127.242188 66.894531 127.410156 64.40625 127.746094 C 61.863281 128.054688 59.371094 128.554688 56.96875 129.171875 C 54.898438 129.703125 52.855469 130.375 50.871094 131.128906 C 49.023438 131.855469 47.207031 132.667969 45.445312 133.535156 Z M 45.445312 133.535156 " fill-opacity="1" fill-rule="nonzero"/></g><g clip-path="url(#dedc73b785)"><path fill="#a6a6a6" d="M 71.996094 55.914062 C 76.320312 55.914062 76.320312 49.152344 71.996094 49.152344 C 67.667969 49.152344 67.667969 55.914062 71.996094 55.914062 Z M 71.996094 55.914062 " fill-opacity="1" fill-rule="nonzero"/></g><path fill="#a6a6a6" d="M 71.996094 75.378906 C 76.320312 75.378906 76.320312 68.621094 71.996094 68.621094 C 67.667969 68.621094 67.667969 75.378906 71.996094 75.378906 Z M 71.996094 75.378906 " fill-opacity="1" fill-rule="nonzero"/><g clip-path="url(#556f1706cf)"><path fill="#a6a6a6" d="M 71.996094 94.84375 C 76.320312 94.84375 76.320312 88.085938 71.996094 88.085938 C 67.667969 88.085938 67.667969 94.84375 71.996094 94.84375 Z M 71.996094 94.84375 " fill-opacity="1" fill-rule="nonzero"/></g></svg>